/* XPM */
static char * player_sprites_xpm[] = {
"96 65 7 1",
" 	c #000000",
".	c #F6E0C8",
"+	c #503197",
"@	c #18215D",
"#	c #EFAAA5",
"$	c #BF53C9",
"%	c #E17CB7",
"@@@++++@++++@@+@@@@++++@++++@@+@@@@@@@+@@@@@@@+@@@@++++@++++@@+@@@@++++@++++@@+@@@@@@@+@@@@@@@+@",
"++++#..#..#++@+@++++#..#..#++@+@+++++++@+++++@+@++++#..#..#++@+@++++#..#..#++@+@+++++++@+++++@+@",
"@+++.#####.++++@@+++.#####.++++@@@++#..#..#++@+@@+++.#####.++++@@+++.#####.++++@@@++#..#..#++@+@",
"@+@+#@@@@@#+@++@@+@+#@@@@@#+@++@@+++.#####.++++@@+@+#@@@@@#+@++@@+@+#@@@@@#+@++@@+++.#####.++++@",
"@++#@@@@++@#++@@@++#@@@@++@#++@@@+@+#@@@@@#+@+@@@++#@@@@++@#++@@@++#@@@@++@#++@@@+@+#@@@@@#+@+@@",
"+@+.@@@@@+@.+++++@+.@@@@@+@.++++++++@@@@++@++++++@+.@@@@@+@.+++++@+.@@@@@+@.++++++++@@@@++@+++++",
"@@+.@@@@@@@.+@@@@@+.@@@@@@@.+@@@@@+.@@@@@+@.+@@@@@+.@@@@@@@.+@@@@@+.@@@@@@@.+@@@@@+.@@@@@+@.+@@@",
"@@+$.@@@@@.$@@+@@@+$.@@@@@.$@@+@@@+$@@@@@@@$+++@@@+$.@@@@@.$@@+@@@+$.@@@@@.$@@+@@++$@@@@@@@$+@+@",
"@@+#$$$$$$$#+@+@@@+#$$$$$$$#+++@@+$+$@@@@@$++%+@@@+#$$$$$$$#+@+@@++#$$$$$$$#+@+@+%++$@@@@@$+$++@",
"++%$%%%#%%%$%++@++%$%%%#%%%+%%+@++$@%%%#%++.%%+@++%$%%%#%%%$%++@+%%+%%%#%%%$%++@+%%.+%%#%+%@$++@",
"@+%@%%%#%+%@%++@@+%@%%%#%+%+%%+@@+#+%%%#%++..%+@@+%@%%%#%+%@%++@+%%+%%%#%+%@%++@+%..+%%#%+%+#++@",
"@+%+%%%#%+%+%++@@+%+%%%#%++.%%+@@@++%%%#%%+++++@@+%+%%%#%+%+%++@+%%.+%%#%+%+%++@@++++%%#%%%++@+@",
"+.%+%%%#%%%+%.+@@+.+%%%#%%+..+@@@@++%$%#%%$+@@@@+.%+%%%#%%%+%.+@@+..+%%#%%%+.+@@@@++$%%#%$%+@@@@",
"+..+%%%#%%%+..+++@++%%%#%%+++++++@++%%+++$$++++++..+%%%#%%%+..+++@+++%%#%%%++++++@++$$+++%%+++++",
"@+++%$+++$%+++@@@@++%$+++$$+@@@@@@++%%+@+$+@@@@@@+++%$+++$%+++@@@@++$$+++$%+@@@@@@+@+$+@+%%+@@@@",
"@@++%%+@+%%+@@+@@@++%%+@+$$+@@+@@@+@+%%@@@+@@@+@@@++%%+@+%%+@@+@@@++$$+@+%%+@@+@@@+@@@+@%%+@@@+@",
"@@@@+++++@@@@@+@@@@@+++++@@@@@+@@@@@@++++++@@@+@@@@@+++++@@@@@+@@@@@+++++@@@@@+@@@+++++++@@@@@+@",
"+++#.....#+++@+@+++#.....#+++@+@++++#.....#++@+@+++#.....#+++@+@+++#.....#+++@+@++#.....#++++@+@",
"@+#.+++...#+@@+@@+#.+++...#+@@+@@@+#.+++...#+@+@@+#.+++...#+@@+@@+#.+++...#+@@+@+#.+++...#+@@@+@",
"@+#.+@+..@@@+@+@@+#.+@+..@@@+@+@@@+#.+@+..@@@++@@+#.+@+..@@@+@+@@+#.+@+..@@@+@+@+#.+@+..@@@+@@+@",
"@+#.++#.@@@@+@@@@+#.++#.@@@@+@@@@@+#.++#.@@@@+@@@+#.++#.@@@@+@@@@+#.++#.@@@@+@@@+#.++#.@@@@+@@@@",
"++#.##..@@@@++++++#.##..@@@@+++++@+#.##..@@@@+++++#.##..@@@@++++++#.##..@@@@+++++#.##..@@@@+++++",
"@@+#....@@@@+@@@@@+#....@@@++@@@@@#+$....@@@+@@@@@+#....@@@@+@@@@@+#....@@@@+@@@@++$...@@@++@@@@",
"@@#+$...#@@++@+@@@#+$...#@@+@@+@@@#+%$$$$+@@+@+@@@#+$...#@@++@+@@@#+$...#@@++@+@@@+#$$$%@@+@@@+@",
"@@@+#$$$$++@@@+@@@@+#$$$$++@@@+@@@+%%+%%%%#+@@+@@@@+#$$$$++@@@+@@@@+#$$$$++@@@+@@@+$%%%%%#+@@@+@",
"+++$%%%%%#+++@+@+++$%%%%%#+++@+@+++%%%+%%#+++@+@+++$%%%%%#+++@+@+++$%%%%%#+++@+@++%%%$%%%#+++@+@",
"@@+%%%$%%#+@@@+@@@+%%%$%%#+@@@+@@@+%%%.+%#+@@@+@@@+%%%$%%#+@@@+@@@+%%%$%%#+@@@+@+.%%+%%%%#+.+@+@",
"@@+%%+%%%#+@@@+@@@+%%+%%%#+@@@+@@@+++%.+%++@@@+@@@+%%+%%%#+@@@+@@@+%%+%%%#+@@@+@+..++%%%%+++@@+@",
"@@+%%+%%%++@@@@@@@+%%.+%%++@@@@@@@+%%++%+$$+@@@@@@+%%+%%%++@@@@@@+.%%+%%%++@@@@@@++$$++%%%+@@@@@",
"+@+..+$%+++@+++++@++..+%+$+@+++++@%%%++++$$$+++++@+..+$%+++@++++++..+%%%+@+@+++++@$$$+++%%%+++++",
"@@+++$%+$++@@@@@@@++++%+$$$+@@@@@@+@+@@@@+$@@@@@@@+++$%+$++@@@@@@@++$+%%%++@@@@@@@+++@@@+%+@@@@@",
"@@+@+%%+$++@@@+@@@++@@+#+$$+@@+@@@+@@@+@@@+@@@+@@@+@+%%+$++@@@+@@@++$$+%%++@@@+@@@+@@@+@@@+@@@+@",
"@@@@@+++@+++@@+@@@@@@+++@+++@@+@@@@@@+++@+++@@+@@@@@@+++@+++@@+@@@@@@+++@+++@@+@@@@@@+++@+++@@+@",
"+++++#..#..#+@+@+++++#..#..#+@+@+++++#..#..#+@+@+++++#..#..#+@+@+++++#..#..#+@+@+++++#..#..#+@+@",
"@@@++...#...+++@@@@++...#...+++@@@@@+...#...+@+@@@@++...#...+++@@@@++...#...+++@@@@@+...#...+@+@",
"@@+@+...#...+@+@@@+@+...#...+@+@@@++...+++...++@@@+@+...#...+@+@@@+@+...#...+@+@@@++...+++...++@",
"@@+++...#...++@@@@+++...#...++@@@@++#..+@+..#+@@@@+++...#...++@@@@+++...#...++@@@@++#..+@+..#+@@",
"+@++#..+++..#++++@++#..+++..#++++@++##..@..##++++@++#..+++..#++++@++#..+++..#++++@++##..@..##+++",
"@@++##.+@+.##+@@@@++##.+@+.##+@@@@+@+@@@@@@@+@@@@@++##.+@+.##+@@@@++##.+@+.##+@@@@+@+@@@@@@@+@@@",
"@@+@+%##@##%+@+@@@+@+%##@##%+@+@@@++#@##@#@@#++@@@+@+%##@##%+@+@@@+@+$##@##$+@+@@@++#@##@#@@#++@",
"@@@+#@@@@@@@#++@@@@+#@@@@@@@#++@@@+%%@##@@#@%%+@@@@+#@@@@@@@#++@@@@+#@@@@@@@#++@@@+%$@##@@#@$%+@",
"+++%%@##@#@@%%+@+++%%@##@#@@%%+@+++%+@@@@@@@+%+@+++%%@##@#@@%%+@+++%$@##@#@@$%+@+++%+@@@@@@@+%+@",
"@@+%+@##@@#@+%+@@@+%+@##@@#@+%+@@@+%%%+%%%%%+%+@@@+%+@##@@#@+%+@@@+%+@##@@#@+%+@@@+$+$$$$$+%%%+@",
"@@+%+@@@@@@@+%+@@@+%+@@@@@@@+%+@@@++..+%%%%%+@+@@@+%+@@@@@@@+%+@@@+%+@@@@@@@+%+@@@+@+$%%%$+..++@",
"@+.%+%%%%%%%+%.+@@+.%+%%%%%%+.+@@@+@++%%%%%%+@@@@+.%+%%%%%%%+%.+@@+.+$$$$$$+%.+@@@+@+$%%%%$++@@@",
"++..+%%%%%%%+..++@+..+%%%%%%+++++@+@++++++%%++++++..+%%%%%%%+..++@+++$%%%%%+..+++@+@+$$+++++++++",
"@@+++%%+++%%+++@@@++++++++%%+@@@@@+@@@@@@+%%+@@@@@+++%%+++%%+++@@@+@+$$+++++++@@@@+@+$$+@@+@@@@@",
"@@+@+%%+%+%%+@+@@@+@++++%+%%+@+@@@+@@@+@@++++@+@@@+@+%%+@+%%+@+@@@+@+$$+%++++@+@@@+@++++@@+@@@+@",
"@@@@@+++@+++@@+@@@@@@+++@+++@@+@@@@@@+++@+++@@+@@@@@@+++@+++@@+@@@@@@+++@+++@@+@@@@@@+++@+++@@+@",
"+++++@+#.....#+@++++++#.....#++@++++++#.....#++@+++++#.....#+@+@++++++#.....#++@++++++#.....#++@",
"@@@@@+#...+++.#+@@@@+#...+++.#+@@@@@+#...+++.#+@@@@+#...+++.#++@@@@@+#...+++.#+@@@@@+#...+++.#+@",
"@@+@+@@@..+@+.#+@@+@+@@..+@+.#+@@@++@@@..+@+.#+@@@+@@@..+@+.#++@@@+++@@..+@+.#+@@@++@@@..+@+.#+@",
"@@+@+@@@@.#++.#+@@++@@@@.#++.#+@@@++@@@@.#++.#+@@@+@@@@.#++.#+@@@@+++@@@.#++.#+@@@++@@@@.#++.#+@",
"+@+@+@@@@..##.#++@+++@@@..##.#+++@++@@@@..##.#+++@+@@@@..##.#++++@++@@@@..##.#+++@++@@@@..##.#++",
"@@+@+@@@@...$++@@@+@+@@@....#+@@@@+++@@@....#+@@@@++@@@....$+#@@@@+++@@@....#+@@@@+++@@@....#+@@",
"@@+@@+@@%$$$#@+@@@+@+@@#...$+#+@@@+@+@@#...$+#+@@@++@@+$$$$%+#+@@@+++@@#...$+#+@@@+@++@#...$+#+@",
"@@@@@+#%%%%%$++@@@@@@++$$$$#+@+@@@@@+++$$$$#+@+@@@@@+#%%%%+%%++@@@@@+++$$$$#+@+@@@@@@++$$$$#+@+@",
"++++++#%%%$%%%+@++++++#%%%%%$++@++++++#%%%%%$++@++++++#%%+%%%++@++++++#%%%%%$++@++++++#%%%%%$++@",
"@@@+.+#%%%%+%%.+@@@@@+#%%$%%%++@@@@@@+#%%$%%%++@@@@@@+#%+.%%%++@@@@@@+#%%$%%%++@@@@@@+#%%$%%%++@",
"@@+@+++%%%%++..+@@+@@+#%%%+%%++@@@+@@+#%%%+%%++@@@+@@++%+.%++@+@@@+@@+#%%%+%%++@@@+@@+#%%%+%%++@",
"@@+@@+%%%++$$++@@@+@@@+%%%+%%.+@@@+@@@+%%%+%%+@@@@+@+$$+%++%%+@@@@+@@@+%%+.%%+@@@@+@@@+%%%+%%+@@",
"+@+@+%%%+@+$$$+++@+@++++%%%+..+++@+@++++%$+..++++@+@$$$++@+%%%+++@+@++$+%+..+++++@+@++++%$+..+++",
"@@+@+@%+@@+++@@@@@+@@@+%%%+$++@@@@+@@@+$+%$++@@@@@+@+++@@@++@@@@@@+@+$$$+%+++@@@@@+@@@+$+%$++@@@",
"+@+@+++@@@++@@+@@@+@@@+%%+$$+@+@@@+@@@+$+%%+@@+@@@+@+++@@@+@@@+@@@+@+$$+#++@+@+@@@+@@@+$+%%+@@+@",
"@@@++++@+++@@@+@@@+@+++@+++@@@+@@@+@+++@+++@@@+@@@+@+++@+++@@@+@@@+@+++@+++@@@+@@@+@+++@+++@@@+@"};
